<svg width="1692" height="158" viewBox="0 0 1692 158" fill="none" xmlns="http://www.w3.org/2000/svg">
<path d="M100.19 11.8823V119H85.8011V41.4595L52.7065 76.7924H48.8694L14.9754 41.4595V119H0.586495V11.8823H5.06306L50.7879 60.9646L95.7134 11.8823H100.19ZM156.857 37.4626C164.957 37.4626 172.152 39.3811 178.44 43.2182C184.729 47.0552 189.632 52.1713 193.149 58.5664C196.773 64.9615 198.585 71.9428 198.585 79.5103C198.585 87.0778 196.773 94.0592 193.149 100.454C189.632 106.743 184.729 111.806 178.44 115.643C172.152 119.48 164.957 121.398 156.857 121.398C148.756 121.398 141.562 119.48 135.273 115.643C128.985 111.806 124.029 106.743 120.405 100.454C116.888 94.0592 115.129 87.0778 115.129 79.5103C115.129 71.9428 116.888 64.9615 120.405 58.5664C124.029 52.1713 128.985 47.0552 135.273 43.2182C141.562 39.3811 148.756 37.4626 156.857 37.4626ZM156.857 50.2528C151.208 50.2528 146.252 51.6384 141.988 54.4096C137.725 57.0742 134.421 60.6448 132.076 65.1214C129.838 69.4914 128.719 74.2877 128.719 79.5103C128.719 84.6264 129.838 89.4227 132.076 93.8993C134.421 98.2693 137.725 101.84 141.988 104.611C146.252 107.276 151.208 108.608 156.857 108.608C162.612 108.608 167.569 107.276 171.725 104.611C175.989 101.84 179.24 98.2693 181.478 93.8993C183.823 89.4227 184.995 84.6264 184.995 79.5103C184.995 74.2877 183.823 69.4914 181.478 65.1214C179.24 60.6448 175.989 57.0742 171.725 54.4096C167.569 51.6384 162.612 50.2528 156.857 50.2528ZM222.637 39.0614V51.6917C224.342 49.56 226.527 47.4283 229.192 45.2966C231.856 43.0583 234.841 41.1931 238.145 39.7009C241.556 38.2087 245.073 37.4626 248.697 37.4626C254.133 37.4626 259.089 38.6883 263.565 41.1398C268.042 43.4847 271.613 47.1085 274.277 52.0114C276.942 56.8078 278.274 62.8831 278.274 70.2374V119H265.164L265.004 71.5165C265.004 64.5885 263.459 59.3125 260.368 55.6886C257.383 52.0647 252.747 50.2528 246.458 50.2528C242.195 50.2528 237.932 51.8516 233.668 55.0491C229.512 58.1401 225.834 61.764 222.637 65.9208V119H209.527V39.0614H222.637ZM314.477 16.0391V39.0614H337.819V51.3719H314.477V98.216C314.477 101.52 315.329 104.131 317.035 106.05C318.74 107.968 321.351 108.928 324.869 108.928C328.066 108.928 330.731 108.555 332.863 107.809C334.994 106.956 336.859 106.05 338.458 105.091V115.802C336.327 117.508 334.035 118.84 331.584 119.799C329.239 120.865 326.041 121.398 321.991 121.398C315.169 121.398 310 119.373 306.483 115.323C303.072 111.166 301.367 105.677 301.367 98.8555V51.3719H286.019V47.5349C291.241 45.19 295.611 41.353 299.128 36.0237C302.646 30.5879 305.737 23.9263 308.401 16.0391H314.477ZM364.109 39.0614V55.0491C367.2 49.7199 370.93 45.4565 375.3 42.2589C379.67 39.0614 384.147 37.4626 388.73 37.4626C391.821 37.4626 394.592 37.9955 397.044 39.0614V54.2497C393.633 52.2246 390.222 51.2121 386.811 51.2121C381.376 51.2121 376.952 53.1306 373.542 56.9676C370.238 60.8047 367.093 65.3878 364.109 70.7171V119H350.999V39.0614H364.109ZM436.124 37.4626C444.331 37.4626 451.152 39.168 456.588 42.5787C462.024 45.9894 466.074 50.6258 468.739 56.488C471.51 62.3502 472.896 68.9584 472.896 76.3128V84.1468H411.503C412.142 88.6233 413.688 92.7268 416.139 96.4573C418.591 100.188 421.788 103.172 425.732 105.41C429.676 107.542 434.206 108.608 439.322 108.608C445.077 108.608 450.46 107.169 455.469 104.291C460.479 101.307 464.689 98.0561 468.099 94.5388L467.94 108.768C466.447 110.58 464.209 112.498 461.225 114.523C458.347 116.442 454.99 118.041 451.152 119.32C447.422 120.705 443.478 121.398 439.322 121.398C431.221 121.398 424.027 119.48 417.738 115.643C411.45 111.806 406.493 106.743 402.87 100.454C399.352 94.0592 397.594 87.0778 397.594 79.5103C397.594 71.9428 399.246 64.9615 402.55 58.5664C405.854 52.1713 410.384 47.0552 416.139 43.2182C422.002 39.3811 428.663 37.4626 436.124 37.4626ZM436.124 50.2528C429.516 50.2528 424.08 52.4911 419.817 56.9676C415.553 61.3376 412.889 66.6669 411.823 72.9554H459.946C459.413 67.7327 457.921 63.4693 455.469 60.1652C453.124 56.8611 450.247 54.4096 446.836 52.8108C443.425 51.1055 439.855 50.2528 436.124 50.2528ZM516.773 37.4626C521.356 37.4626 525.992 38.5818 530.682 40.82C535.478 42.9517 539.582 45.9361 542.992 49.7732V39.0614H556.102V119H542.992V105.41C540.221 109.674 536.437 113.404 531.641 116.602C526.951 119.799 521.569 121.398 515.493 121.398C508.672 121.398 502.437 119.693 496.788 116.282C491.139 112.765 486.609 107.915 483.198 101.733C479.894 95.5513 478.242 88.4102 478.242 80.3097C478.242 71.4632 479.894 63.8424 483.198 57.4473C486.609 51.0522 491.245 46.1493 497.108 42.7386C502.97 39.2213 509.525 37.4626 516.773 37.4626ZM519.171 50.2528C513.415 50.2528 508.512 51.6917 504.462 54.5695C500.412 57.4473 497.267 61.1777 495.029 65.7609C492.898 70.2374 491.832 75.0871 491.832 80.3097C491.832 85.4258 492.898 90.1688 495.029 94.5388C497.161 98.8022 500.145 102.213 503.982 104.771C507.926 107.329 512.456 108.608 517.572 108.608C522.475 108.608 526.845 107.329 530.682 104.771C534.519 102.213 537.557 98.6956 539.795 94.219C542.033 89.6359 543.099 84.5198 542.992 78.8708L542.832 63.5226C539.528 59.3658 535.958 56.115 532.121 53.7701C528.39 51.4252 524.074 50.2528 519.171 50.2528ZM585.75 3.8884V119H572.64V3.8884H585.75ZM686.294 11.8823C692.475 11.8823 698.391 13.3212 704.04 16.1989C709.689 18.9701 714.325 23.0204 717.949 28.3496C721.68 33.5723 723.545 39.8608 723.545 47.2151C723.545 53.5036 721.786 59.3125 718.269 64.6417C714.752 69.971 709.955 74.2877 703.88 77.5918C697.911 80.7893 691.25 82.3881 683.895 82.3881C678.46 82.3881 673.45 81.8552 668.867 80.7893C664.39 79.6169 660.766 78.3912 657.995 77.1122V119H643.606V11.8823H686.294ZM657.995 25.4718V64.0022C660.873 65.1747 664.604 66.2938 669.187 67.3597C673.876 68.3189 678.619 68.7986 683.416 68.7986C691.516 68.7986 697.751 66.7201 702.121 62.5633C706.598 58.2999 708.836 53.1839 708.836 47.2151C708.836 42.632 707.557 38.7416 704.999 35.5441C702.548 32.3465 699.297 29.8951 695.247 28.1897C691.196 26.3778 686.88 25.4718 682.297 25.4718H657.995ZM770.619 37.4626C778.72 37.4626 785.914 39.3811 792.203 43.2182C798.491 47.0552 803.394 52.1713 806.911 58.5664C810.535 64.9615 812.347 71.9428 812.347 79.5103C812.347 87.0778 810.535 94.0592 806.911 100.454C803.394 106.743 798.491 111.806 792.203 115.643C785.914 119.48 778.72 121.398 770.619 121.398C762.519 121.398 755.324 119.48 749.036 115.643C742.747 111.806 737.791 106.743 734.167 100.454C730.65 94.0592 728.891 87.0778 728.891 79.5103C728.891 71.9428 730.65 64.9615 734.167 58.5664C737.791 52.1713 742.747 47.0552 749.036 43.2182C755.324 39.3811 762.519 37.4626 770.619 37.4626ZM770.619 50.2528C764.97 50.2528 760.014 51.6384 755.751 54.4096C751.487 57.0742 748.183 60.6448 745.838 65.1214C743.6 69.4914 742.481 74.2877 742.481 79.5103C742.481 84.6264 743.6 89.4227 745.838 93.8993C748.183 98.2693 751.487 101.84 755.751 104.611C760.014 107.276 764.97 108.608 770.619 108.608C776.375 108.608 781.331 107.276 785.488 104.611C789.751 101.84 793.002 98.2693 795.24 93.8993C797.585 89.4227 798.758 84.6264 798.758 79.5103C798.758 74.2877 797.585 69.4914 795.24 65.1214C793.002 60.6448 789.751 57.0742 785.488 54.4096C781.331 51.6384 776.375 50.2528 770.619 50.2528ZM836.399 39.0614V55.0491C839.49 49.7199 843.22 45.4565 847.59 42.2589C851.96 39.0614 856.437 37.4626 861.02 37.4626C864.111 37.4626 866.882 37.9955 869.334 39.0614V54.2497C865.923 52.2246 862.512 51.2121 859.102 51.2121C853.666 51.2121 849.242 53.1306 845.832 56.9676C842.528 60.8047 839.383 65.3878 836.399 70.7171V119H823.289V39.0614H836.399ZM899.301 37.4626C903.991 37.4626 908.361 38.1554 912.411 39.541C916.461 40.82 919.392 42.1523 921.204 43.5379V57.6071C918.966 55.9018 915.928 54.2497 912.091 52.651C908.254 51.0522 904.311 50.2528 900.26 50.2528C895.251 50.2528 891.467 51.4252 888.909 53.7701C886.458 56.115 885.232 58.5664 885.232 61.1244C885.232 63.1496 885.925 65.228 887.31 67.3597C888.803 69.3848 891.361 71.0368 894.984 72.3159L908.414 77.1122C913.637 78.9241 917.527 81.5354 920.085 84.9462C922.643 88.3569 923.922 92.3538 923.922 96.9369C923.922 101.414 922.643 105.517 920.085 109.247C917.634 112.978 914.17 115.962 909.693 118.201C905.323 120.332 900.26 121.398 894.505 121.398C891.414 121.398 888.163 120.972 884.752 120.119C881.448 119.373 878.464 118.467 875.799 117.401C873.135 116.229 871.163 115.216 869.884 114.364V100.294C871.376 101.36 873.454 102.586 876.119 103.972C878.89 105.251 881.821 106.37 884.912 107.329C888.003 108.182 890.881 108.608 893.546 108.608C898.555 108.608 902.499 107.489 905.376 105.251C908.361 103.012 909.853 100.241 909.853 96.9369C909.853 94.3789 908.841 92.3538 906.815 90.8616C904.897 89.3694 902.072 87.9305 898.342 86.5449L886.511 82.2282C880.329 79.8834 876.226 76.9523 874.2 73.435C872.175 69.8111 871.163 65.7076 871.163 61.1244C871.163 54.303 873.721 48.654 878.837 44.1775C883.953 39.7009 890.774 37.4626 899.301 37.4626ZM969.398 37.4626C975.26 37.4626 980.323 38.4219 984.586 40.3404C988.849 42.1523 991.781 43.8044 993.379 45.2966V58.5664C990.395 56.3281 986.984 54.4096 983.147 52.8108C979.31 51.1055 974.727 50.2528 969.398 50.2528C963.749 50.2528 958.793 51.6384 954.529 54.4096C950.266 57.0742 946.962 60.6448 944.617 65.1214C942.378 69.4914 941.259 74.2877 941.259 79.5103C941.259 84.6264 942.378 89.4227 944.617 93.8993C946.962 98.2693 950.266 101.84 954.529 104.611C958.793 107.276 963.749 108.608 969.398 108.608C974.727 108.608 979.31 107.809 983.147 106.21C986.984 104.504 990.395 102.533 993.379 100.294V113.564C991.781 115.163 988.849 116.868 984.586 118.68C980.323 120.492 975.26 121.398 969.398 121.398C961.297 121.398 954.103 119.48 947.814 115.643C941.526 111.806 936.57 106.743 932.946 100.454C929.428 94.0592 927.67 87.0778 927.67 79.5103C927.67 71.9428 929.428 64.9615 932.946 58.5664C936.57 52.1713 941.526 47.0552 947.814 43.2182C954.103 39.3811 961.297 37.4626 969.398 37.4626ZM1043.49 37.4626C1048.93 37.4626 1053.88 38.6883 1058.36 41.1398C1062.84 43.4847 1066.41 47.1085 1069.07 52.0114C1071.74 56.8078 1073.07 62.8831 1073.07 70.2374V119H1059.96L1059.8 71.5165C1059.8 64.5885 1058.25 59.3125 1055.16 55.6886C1052.18 52.0647 1047.54 50.2528 1041.25 50.2528C1036.99 50.2528 1032.73 51.8516 1028.46 55.0491C1024.31 58.1401 1020.63 61.764 1017.43 65.9208V119H1004.32V3.8884H1017.43V51.6917C1019.14 49.56 1021.32 47.4283 1023.99 45.2966C1026.65 43.0583 1029.64 41.1931 1032.94 39.7009C1036.35 38.2087 1039.87 37.4626 1043.49 37.4626ZM1120.14 37.4626C1128.35 37.4626 1135.17 39.168 1140.61 42.5787C1146.04 45.9894 1150.09 50.6258 1152.76 56.488C1155.53 62.3502 1156.91 68.9584 1156.91 76.3128V84.1468H1095.52C1096.16 88.6233 1097.71 92.7268 1100.16 96.4573C1102.61 100.188 1105.81 103.172 1109.75 105.41C1113.69 107.542 1118.22 108.608 1123.34 108.608C1129.1 108.608 1134.48 107.169 1139.49 104.291C1144.5 101.307 1148.71 98.0561 1152.12 94.5388L1151.96 108.768C1150.47 110.58 1148.23 112.498 1145.24 114.523C1142.37 116.442 1139.01 118.041 1135.17 119.32C1131.44 120.705 1127.5 121.398 1123.34 121.398C1115.24 121.398 1108.05 119.48 1101.76 115.643C1095.47 111.806 1090.51 106.743 1086.89 100.454C1083.37 94.0592 1081.61 87.0778 1081.61 79.5103C1081.61 71.9428 1083.26 64.9615 1086.57 58.5664C1089.87 52.1713 1094.4 47.0552 1100.16 43.2182C1106.02 39.3811 1112.68 37.4626 1120.14 37.4626ZM1120.14 50.2528C1113.53 50.2528 1108.1 52.4911 1103.84 56.9676C1099.57 61.3376 1096.91 66.6669 1095.84 72.9554H1143.96C1143.43 67.7327 1141.94 63.4693 1139.49 60.1652C1137.14 56.8611 1134.27 54.4096 1130.85 52.8108C1127.44 51.1055 1123.87 50.2528 1120.14 50.2528ZM1235.08 10.2835C1241.36 10.2835 1246.53 11.1895 1250.58 13.0014C1254.74 14.8133 1258.36 16.7319 1261.46 18.757V33.6256C1258.47 31.3873 1254.85 29.3089 1250.58 27.3903C1246.32 25.3652 1241.68 24.3527 1236.67 24.3527C1233.48 24.3527 1230.12 24.9389 1226.6 26.1113C1223.19 27.1772 1220.31 28.9358 1217.97 31.3873C1215.62 33.8387 1214.45 36.983 1214.45 40.82C1214.45 45.0834 1216 48.3343 1219.09 50.5725C1222.18 52.8108 1225.91 54.9425 1230.28 56.9676L1244.99 63.6825C1252.34 66.9866 1257.88 70.6638 1261.61 74.714C1265.35 78.7642 1267.21 84.1468 1267.21 90.8616C1267.21 96.7238 1265.51 101.893 1262.09 106.37C1258.68 110.74 1254.21 114.204 1248.66 116.762C1243.12 119.32 1237.05 120.599 1230.44 120.599C1224.26 120.599 1218.55 119.533 1213.33 117.401C1208.11 115.27 1203.58 112.871 1199.74 110.207V95.3382C1203.9 98.216 1208.64 100.827 1213.97 103.172C1219.41 105.41 1225.54 106.53 1232.36 106.53C1237.69 106.53 1242.38 105.197 1246.43 102.533C1250.48 99.868 1252.5 96.1908 1252.5 91.5011C1252.5 88.8365 1251.65 86.5449 1249.94 84.6264C1248.35 82.7079 1246.37 81.0558 1244.03 79.6702C1241.68 78.2846 1239.39 77.1122 1237.15 76.1529L1219.41 68.159C1211.73 64.7483 1206.51 60.7514 1203.74 56.1683C1200.97 51.5851 1199.58 46.3092 1199.58 40.3404C1199.58 34.6914 1201.18 29.6286 1204.38 25.1521C1207.68 20.5689 1212.05 16.945 1217.49 14.2804C1222.92 11.6158 1228.79 10.2835 1235.08 10.2835ZM1314.28 37.4626C1322.39 37.4626 1329.58 39.3811 1335.87 43.2182C1342.16 47.0552 1347.06 52.1713 1350.58 58.5664C1354.2 64.9615 1356.01 71.9428 1356.01 79.5103C1356.01 87.0778 1354.2 94.0592 1350.58 100.454C1347.06 106.743 1342.16 111.806 1335.87 115.643C1329.58 119.48 1322.39 121.398 1314.28 121.398C1306.18 121.398 1298.99 119.48 1292.7 115.643C1286.41 111.806 1281.46 106.743 1277.83 100.454C1274.32 94.0592 1272.56 87.0778 1272.56 79.5103C1272.56 71.9428 1274.32 64.9615 1277.83 58.5664C1281.46 52.1713 1286.41 47.0552 1292.7 43.2182C1298.99 39.3811 1306.18 37.4626 1314.28 37.4626ZM1314.28 50.2528C1308.64 50.2528 1303.68 51.6384 1299.42 54.4096C1295.15 57.0742 1291.85 60.6448 1289.5 65.1214C1287.27 69.4914 1286.15 74.2877 1286.15 79.5103C1286.15 84.6264 1287.27 89.4227 1289.5 93.8993C1291.85 98.2693 1295.15 101.84 1299.42 104.611C1303.68 107.276 1308.64 108.608 1314.28 108.608C1320.04 108.608 1325 107.276 1329.15 104.611C1333.42 101.84 1336.67 98.2693 1338.91 93.8993C1341.25 89.4227 1342.42 84.6264 1342.42 79.5103C1342.42 74.2877 1341.25 69.4914 1338.91 65.1214C1336.67 60.6448 1333.42 57.0742 1329.15 54.4096C1325 51.6384 1320.04 50.2528 1314.28 50.2528ZM1403.09 37.4626C1408.95 37.4626 1414.01 38.4219 1418.28 40.3404C1422.54 42.1523 1425.47 43.8044 1427.07 45.2966V58.5664C1424.08 56.3281 1420.67 54.4096 1416.84 52.8108C1413 51.1055 1408.42 50.2528 1403.09 50.2528C1397.44 50.2528 1392.48 51.6384 1388.22 54.4096C1383.96 57.0742 1380.65 60.6448 1378.31 65.1214C1376.07 69.4914 1374.95 74.2877 1374.95 79.5103C1374.95 84.6264 1376.07 89.4227 1378.31 93.8993C1380.65 98.2693 1383.96 101.84 1388.22 104.611C1392.48 107.276 1397.44 108.608 1403.09 108.608C1408.42 108.608 1413 107.809 1416.84 106.21C1420.67 104.504 1424.08 102.533 1427.07 100.294V113.564C1425.47 115.163 1422.54 116.868 1418.28 118.68C1414.01 120.492 1408.95 121.398 1403.09 121.398C1394.99 121.398 1387.79 119.48 1381.5 115.643C1375.22 111.806 1370.26 106.743 1366.64 100.454C1363.12 94.0592 1361.36 87.0778 1361.36 79.5103C1361.36 71.9428 1363.12 64.9615 1366.64 58.5664C1370.26 52.1713 1375.22 47.0552 1381.5 43.2182C1387.79 39.3811 1394.99 37.4626 1403.09 37.4626ZM1450.8 0.690853C1453.89 0.690853 1456.45 1.80999 1458.47 4.04827C1460.61 6.17997 1461.67 8.68471 1461.67 11.5625C1461.67 14.3337 1460.61 16.8385 1458.47 19.0767C1456.45 21.315 1453.89 22.4342 1450.8 22.4342C1447.71 22.4342 1445.1 21.315 1442.97 19.0767C1440.94 16.8385 1439.93 14.3337 1439.93 11.5625C1439.93 8.68471 1440.94 6.17997 1442.97 4.04827C1445.1 1.80999 1447.71 0.690853 1450.8 0.690853ZM1458.95 39.0614V119H1445.84V51.3719H1433.21V39.0614H1458.95ZM1509.55 37.4626C1517.75 37.4626 1524.57 39.168 1530.01 42.5787C1535.45 45.9894 1539.5 50.6258 1542.16 56.488C1544.93 62.3502 1546.32 68.9584 1546.32 76.3128V84.1468H1484.93C1485.56 88.6233 1487.11 92.7268 1489.56 96.4573C1492.01 100.188 1495.21 103.172 1499.15 105.41C1503.1 107.542 1507.63 108.608 1512.74 108.608C1518.5 108.608 1523.88 107.169 1528.89 104.291C1533.9 101.307 1538.11 98.0561 1541.52 94.5388L1541.36 108.768C1539.87 110.58 1537.63 112.498 1534.65 114.523C1531.77 116.442 1528.41 118.041 1524.57 119.32C1520.84 120.705 1516.9 121.398 1512.74 121.398C1504.64 121.398 1497.45 119.48 1491.16 115.643C1484.87 111.806 1479.92 106.743 1476.29 100.454C1472.77 94.0592 1471.02 87.0778 1471.02 79.5103C1471.02 71.9428 1472.67 64.9615 1475.97 58.5664C1479.28 52.1713 1483.81 47.0552 1489.56 43.2182C1495.42 39.3811 1502.09 37.4626 1509.55 37.4626ZM1509.55 50.2528C1502.94 50.2528 1497.5 52.4911 1493.24 56.9676C1488.98 61.3376 1486.31 66.6669 1485.24 72.9554H1533.37C1532.83 67.7327 1531.34 63.4693 1528.89 60.1652C1526.55 56.8611 1523.67 54.4096 1520.26 52.8108C1516.85 51.1055 1513.28 50.2528 1509.55 50.2528ZM1579.32 16.0391V39.0614H1602.66V51.3719H1579.32V98.216C1579.32 101.52 1580.18 104.131 1581.88 106.05C1583.59 107.968 1586.2 108.928 1589.71 108.928C1592.91 108.928 1595.58 108.555 1597.71 107.809C1599.84 106.956 1601.71 106.05 1603.3 105.091V115.802C1601.17 117.508 1598.88 118.84 1596.43 119.799C1594.08 120.865 1590.89 121.398 1586.84 121.398C1580.02 121.398 1574.85 119.373 1571.33 115.323C1567.92 111.166 1566.21 105.677 1566.21 98.8555V51.3719H1550.86V47.5349C1556.09 45.19 1560.46 41.353 1563.97 36.0237C1567.49 30.5879 1570.58 23.9263 1573.25 16.0391H1579.32ZM1620.32 39.0614L1648.3 97.8962L1675.48 39.0614H1691.15L1632.31 157.371H1617.12L1639.99 114.204L1604.65 39.0614H1620.32Z" fill="white"/>
</svg>
